:SAMPLES-PER-SECOND 30
:FULLY-SPECIFIED
:DEGREES
133
root  0.1809260038 40.65355616 4.436044618 5.722000122 -10.06500244 5.401992798
lowerback  16.9885006 1.135429978 -8.039719582
upperback  5.460110188 0.04694399983 -1.785979986
thorax  -3.654839993 0.001528340043 2.644190073
lowerneck  -3.538609982 0.6733959913 -9.703499794
upperneck  12.04039955 0.9691960216 5.937520027
head  4.091090202 0.3542700112 3.464190006
lclavicle  0 -9.442270133e-015 7.951389973e-016
lhumerus  -0.8733180165 -9.219280243 78.64700317
lradius  2.492695694e-031 -2.501062217e-031 134.904007
lwrist  -7.062250077e-031 2.648343779e-031 19.44930077
lhand  -1.496451383e-031 -27.76390076 20.11240005
lfingers  90 7.125020027 -90
lthumb  89.89689403 5.08795885 91.16245106
rclavicle  0 -9.442270133e-015 7.951389973e-016
rhumerus  -27.05649948 5.537089825 -73.82170105
rradius  -1.347657975e-031 3.263841605e-031 112.435997
rwrist  1.412450015e-030 -1.765562519e-031 -7.388100147
rhand  -7.920061211e-032 -33.2840004 9.303460121
rfingers  -90 -7.125020027 -90
rthumb  -92.93752616 -24.25625642 -97.11982154
rfemur  -31.99559975 8.176030159 1.485820055
rtibia  -0 0 68.45510101
rfoot  -4.425797819e-032 4.201049805 -6.344810009
rtoes  5.373923086 19.29304026 -105.8922705
lfemur  -23.73180008 -11.11690044 -13.56989956
ltibia  -0 0 38.39849854
lfoot  -0 -8.514369965 -10.88309956
ltoes  -4.250644065 -19.5611806 -102.515957
134
root  0.03035088752 40.88533356 4.308822211 6.022003174 -8.505996704 5.735992432
lowerback  17.18280029 0.7716029882 -8.481989861
upperback  5.549059868 -0.5123950243 -1.830389977
thorax  -3.595679998 -0.276116997 2.955980062
lowerneck  -3.215120077 0.03402550146 -10.0291996
upperneck  11.74520016 0.003941770177 6.882190228
head  4.018770218 -0.08650399745 3.767889977
lclavicle  0 -9.442270133e-015 7.951389973e-016
lhumerus  -0.1536190063 -10.46450043 78.64969635
lradius  2.448399519e-031 -2.544441753e-031 133.897995
lwrist  -7.062250077e-031 8.827812596e-032 19.36899948
lhand  -1.496451383e-031 -27.76390076 20.11240005
lfingers  90 7.125020027 -90
lthumb  89.89689403 5.08795885 91.16245106
rclavicle  0 -9.442270133e-015 7.951389973e-016
rhumerus  -27.54870033 5.417610168 -74.55500031
rradius  -1.285326456e-031 3.288887341e-031 111.3460007
rwrist  7.062250077e-031 -1.765562519e-031 -7.466300011
rhand  -7.920061211e-032 -33.2840004 9.303460121
rfingers  -90 -7.125020027 -90
rthumb  -92.93752616 -24.25625642 -97.11982154
rfemur  -33.27830124 7.274069786 1.405150056
rtibia  -0 0 69.40840149
rfoot  -4.433186162e-032 5.345510006 -3.124439955
rtoes  5.373923086 19.29304026 -105.8922705
lfemur  -23.6189003 -11.42660046 -13.39519978
ltibia  -0 0 36.31230164
lfoot  -0 -6.181570053 -11.85070038
ltoes  -4.250644065 -19.5611806 -102.515957
135
root  -0.1304888936 41.08688775 4.187133369 6.430999756 -6.899993896 5.880004883
lowerback  17.24220085 0.3597590029 -8.775639534
upperback  5.639689922 -1.089869976 -1.781270027
thorax  -3.454430103 -0.5663970113 3.285739899
lowerneck  -3.121819973 -0.5975520015 -10.36250019
upperneck  11.70759964 -0.9260910153 7.747069836
head  4.072949886 -0.5160340071 4.054719925
lclavicle  0 -9.442270133e-015 7.951389973e-016
lhumerus  0.641775012 -11.58139992 78.55069733
lradius  2.400141613e-031 -2.590012408e-031 132.8209991
lwrist  -7.062250077e-031 2.648343779e-031 19.20639992
lhand  -1.496451383e-031 -27.76390076 20.11240005
lfingers  90 7.125020027 -90
lthumb  89.89689403 5.08795885 91.16245106
rclavicle  0 -9.442270133e-015 7.951389973e-016
rhumerus  -27.76490021 5.358320236 -75.23660278
rradius  -1.228309647e-031 3.310604091e-031 110.3560028
rwrist  7.062250077e-031 -0 -7.317450047
rhand  -7.920061211e-032 -33.2840004 9.303460121
rfingers  -90 -7.125020027 -90
rthumb  -92.93752616 -24.25625642 -97.11982154
rfemur  -34.56650162 6.521959782 1.54271996
rtibia  -0 0 70.11440277
rfoot  -4.989903107e-032 5.65196991 0.4798719883
rtoes  5.373923086 19.29304026 -105.8922705
lfemur  -23.69350052 -11.47710037 -13.03129959
ltibia  -0 0 34.45899963
lfoot  -0 -3.941849947 -12.78600025
ltoes  -4.250644065 -19.5611806 -102.515957
136
root  -0.2840399977 41.2626672 4.080866641 6.865005493 -5.315002441 5.822998047
lowerback  17.2038002 -0.08564270288 -8.845859528
upperback  5.751080036 -1.657400012 -1.644549966
thorax  -3.238539934 -0.8562030196 3.576809883
lowerneck  -3.071860075 -1.219329953 -10.76519966
upperneck  11.63759995 -1.821619987 8.501959801
head  4.133639812 -0.9362140298 4.318940163
lclavicle  0 -9.442270133e-015 7.951389973e-016
lhumerus  1.488250017 -12.65470028 78.41809845
lradius  2.352644843e-031 -2.633231148e-031 131.779007
lwrist  -7.062250077e-031 8.827812596e-032 18.9822998
lhand  -1.496451383e-031 -27.76390076 20.11240005
lfingers  90 7.125020027 -90
lthumb  89.89689403 5.08795885 91.16245106
rclavicle  0 -9.442270133e-015 7.951389973e-016
rhumerus  -27.8302002 5.413109779 -75.83740234
rradius  -1.172670181e-031 3.330718944e-031 109.3960037
rwrist  7.062250077e-031 -1.765562519e-031 -7.000810146
rhand  -7.920061211e-032 -33.2840004 9.303460121
rfingers  -90 -7.125020027 -90
rthumb  -92.93752616 -24.25625642 -97.11982154
rfemur  -35.78379822 5.916359901 1.880169988
rtibia  -0 0 70.563797
rfoot  -4.433674308e-032 5.412509918 3.690720081
rtoes  5.373923086 19.29304026 -105.8922705
lfemur  -23.82110023 -11.54020023 -12.48579979
ltibia  -0 0 32.89099884
lfoot  -0 -2.534240007 -13.21850014
ltoes  -4.250644065 -19.5611806 -102.515957
